<svg xmlns="http://www.w3.org/2000/svg" width="24" height="26.584" viewBox="0 0 24 26.584"><defs><style>.a{fill:#7e8299;}</style></defs><path class="a" d="M6.417,2A2.416,2.416,0,0,0,4,4.417V23.751a2.408,2.408,0,0,0,2.417,2.417h7.25V23.751H6.417V4.417h8.459v6.042h6.042v3.625h2.417V9.25L16.084,2m4.834,14.5a.314.314,0,0,0-.314.254l-.23,1.6a6.035,6.035,0,0,0-1.027.568l-1.5-.6c-.133,0-.29,0-.375.157l-1.208,2.091a.3.3,0,0,0,.073.387l1.281.991a5.053,5.053,0,0,0,0,1.208l-1.281.991a.314.314,0,0,0-.073.387l1.208,2.091c.073.157.23.157.375.157l1.5-.6a4.971,4.971,0,0,0,1.027.568l.23,1.6a.3.3,0,0,0,.314.254h2.417a.308.308,0,0,0,.29-.254l.23-1.6a6.416,6.416,0,0,0,1.015-.568l1.486.6c.157,0,.314,0,.4-.157l1.208-2.091a.314.314,0,0,0-.073-.387L26.6,23.147a5.088,5.088,0,0,0,.048-.6,3.4,3.4,0,0,0-.048-.6l1.281-.991a.314.314,0,0,0,.073-.387L26.742,18.47c-.073-.157-.23-.157-.387-.157l-1.486.6a5.3,5.3,0,0,0-1.027-.568l-.23-1.6a.286.286,0,0,0-.278-.254M22.126,20.73a1.813,1.813,0,1,1-1.813,1.813A1.81,1.81,0,0,1,22.126,20.73Z" transform="translate(-4 -2)"/></svg>