<svg xmlns="http://www.w3.org/2000/svg" width="24" height="27" viewBox="0 0 24 27"><defs><style>.a{fill:#7e8299;}</style></defs><path class="a" d="M28,10.5H23.785a8.977,8.977,0,0,0-2.73-2.94L23.5,5.115,21.385,3,18.13,6.255A9.1,9.1,0,0,0,16,6a8.877,8.877,0,0,0-2.115.255L10.615,3,8.5,5.115,10.93,7.56A9.093,9.093,0,0,0,8.215,10.5H4v3H7.135A9.957,9.957,0,0,0,7,15v1.5H4v3H7V21a9.957,9.957,0,0,0,.135,1.5H4v3H8.215a8.984,8.984,0,0,0,15.57,0H28v-3H24.865A9.957,9.957,0,0,0,25,21V19.5h3v-3H25V15a9.957,9.957,0,0,0-.135-1.5H28Zm-6,6V21a6.386,6.386,0,0,1-.1,1.05l-.15.975L21.19,24a5.989,5.989,0,0,1-10.38,0l-.555-.96-.15-.975A6.4,6.4,0,0,1,10,21V15a6.077,6.077,0,0,1,.1-1.05l.15-.975L10.81,12a6.15,6.15,0,0,1,1.815-1.965l.855-.585,1.11-.27A5.68,5.68,0,0,1,16,9a5.8,5.8,0,0,1,1.425.18l1.02.24.915.63a5.842,5.842,0,0,1,1.815,1.965l.57.975.15.975A6.055,6.055,0,0,1,22,15v1.5Zm-9,3h6v3H13Zm0-6h6v3H13Z" transform="translate(-4 -3)"/></svg>