<svg xmlns="http://www.w3.org/2000/svg" width="16" height="17.723" viewBox="0 0 16 17.723"><defs><style>.a{fill:#008fe0;}</style></defs><path class="a" d="M5.611,2A1.611,1.611,0,0,0,4,3.611V16.5a1.606,1.606,0,0,0,1.611,1.611h4.834V16.5H5.611V3.611H11.25V7.639h4.028v2.417h1.611V6.834L12.056,2m3.222,9.667a.209.209,0,0,0-.209.169L14.916,12.9a4.023,4.023,0,0,0-.685.379l-1-.4c-.089,0-.193,0-.25.1l-.806,1.394a.2.2,0,0,0,.048.258l.854.661a3.369,3.369,0,0,0,0,.806l-.854.661a.209.209,0,0,0-.048.258l.806,1.394c.048.1.153.1.25.1l1-.4a3.314,3.314,0,0,0,.685.379l.153,1.063a.2.2,0,0,0,.209.169h1.611a.205.205,0,0,0,.193-.169l.153-1.063a4.277,4.277,0,0,0,.677-.379l.991.4c.1,0,.209,0,.266-.1l.806-1.394a.209.209,0,0,0-.048-.258l-.862-.661a3.392,3.392,0,0,0,.032-.4,2.264,2.264,0,0,0-.032-.4l.854-.661a.209.209,0,0,0,.048-.258l-.806-1.394c-.048-.1-.153-.1-.258-.1l-.991.4a3.536,3.536,0,0,0-.685-.379l-.153-1.063a.19.19,0,0,0-.185-.169m-.806,2.82A1.208,1.208,0,1,1,14.875,15.7,1.207,1.207,0,0,1,16.084,14.487Z" transform="translate(-4 -2)"/></svg>