<svg xmlns="http://www.w3.org/2000/svg" width="35" height="35" viewBox="0 0 35 35"><defs><style>.a{fill:#008FE0;}.b{fill:#008FE0;}.c{fill:#FFFFFF;}</style></defs><rect class="a" width="35" height="35" rx="5"/><g transform="translate(9.5 6)"><path class="b" d="M0,0H18V17.8H0Z"/><g transform="translate(0 2)"><path class="c" d="M14.6,3H4.933A1.931,1.931,0,0,0,3.01,4.933L3,18.467A1.931,1.931,0,0,0,4.924,20.4H18.467A1.939,1.939,0,0,0,20.4,18.467V8.8ZM4.933,18.467V4.933h8.7V9.767h4.833v8.7ZM8.8,7.833a.967.967,0,1,1-.967-.967A.97.97,0,0,1,8.8,7.833Zm0,3.867a.967.967,0,1,1-.967-.967A.97.97,0,0,1,8.8,11.7Zm0,3.867a.967.967,0,1,1-.967-.967A.97.97,0,0,1,8.8,15.567Z" transform="translate(-3 -3)"/></g></g></svg>