<svg xmlns="http://www.w3.org/2000/svg" width="16" height="21.196" viewBox="0 0 16 21.196"><defs><style>.a{fill:#008fe0;}</style></defs><g transform="translate(-4 -1)"><g transform="translate(4 1)"><path class="a" d="M18.322,12.547l-3.27-1.635a5.5,5.5,0,0,0,2.14-4.36,5.551,5.551,0,1,0-8.074,4.936v3.29a12.227,12.227,0,0,0-2.281-.444,2,2,0,0,0-1.423.6L4,16.362,9.137,21.5a2.336,2.336,0,0,0,1.665.7h6.359A2.007,2.007,0,0,0,19.15,20.51l.807-4.754A3.02,3.02,0,0,0,18.322,12.547Zm-.353,2.877-.807,4.754H10.8a.372.372,0,0,1-.242-.1L6.846,16.362l4.29.9V6.551a.5.5,0,0,1,1.009,0v6.056h1.776l3.492,1.746A1.016,1.016,0,0,1,17.969,15.423ZM8.108,6.551a3.533,3.533,0,1,1,7.065,0,3.5,3.5,0,0,1-1.009,2.463V6.551a2.523,2.523,0,1,0-5.047,0V9.014A3.5,3.5,0,0,1,8.108,6.551Z" transform="translate(-4 -1)"/></g></g></svg>