<svg xmlns="http://www.w3.org/2000/svg" width="24" height="24" viewBox="0 0 24 24"><defs><style>.a{fill:#3699ff;}</style></defs><g transform="translate(-41.5 -125)"><g transform="translate(38.5 122)"><path class="a" d="M24.333,3H5.667A2.675,2.675,0,0,0,3,5.667V24.333A2.675,2.675,0,0,0,5.667,27H24.333A2.675,2.675,0,0,0,27,24.333V5.667A2.675,2.675,0,0,0,24.333,3Zm0,21.333H5.667V5.667H24.333Z"/><rect class="a" width="2" height="5" transform="translate(8.5 16.154)"/><rect class="a" width="2" height="16" transform="translate(19.5 7)"/><rect class="a" width="2" height="3" transform="translate(14 18.4)"/><rect class="a" width="2" height="2" transform="translate(14 12.625)"/></g></g></svg>