<svg xmlns="http://www.w3.org/2000/svg" width="24" height="31.793" viewBox="0 0 24 31.793"><defs><style>.a{fill:#7e8299;}</style></defs><g transform="translate(-4 -1)"><g transform="translate(4 1)"><path class="a" d="M25.483,18.32l-4.905-2.453a8.249,8.249,0,0,0,3.21-6.54,8.327,8.327,0,1,0-12.112,7.4v4.936C8.421,20.969,8.618,21,8.254,21a3,3,0,0,0-2.135.893L4,24.043l7.706,7.706a3.5,3.5,0,0,0,2.5,1.045h9.538a3.011,3.011,0,0,0,2.983-2.528l1.211-7.131A4.53,4.53,0,0,0,25.483,18.32Zm-.53,4.315-1.211,7.131H14.2a.559.559,0,0,1-.363-.151L8.269,24.043,14.7,25.39V9.327a.757.757,0,0,1,1.514,0v9.084h2.665l5.238,2.619A1.524,1.524,0,0,1,24.953,22.635ZM10.162,9.327a5.3,5.3,0,0,1,10.6,0,5.245,5.245,0,0,1-1.514,3.694V9.327a3.785,3.785,0,1,0-7.57,0v3.694A5.245,5.245,0,0,1,10.162,9.327Z" transform="translate(-4 -1)"/></g></g></svg>